Coordinates
version=1
nRows=11
nColumns=40
inDegrees=yes

Units are S.I. units (second, meters, Newtons, ...)
If the header above contains a line with 'inDegrees', this indicates whether rotational values are in degrees (yes) or radians (no).

endheader
time	pelvis_tilt	pelvis_list	pelvis_rotation	pelvis_tx	pelvis_ty	pelvis_tz	hip_flexion_r	hip_adduction_r	hip_rotation_r	knee_angle_r	knee_angle_r_beta	ankle_angle_r	subtalar_angle_r	mtp_angle_r	hip_flexion_l	hip_adduction_l	hip_rotation_l	knee_angle_l	knee_angle_l_beta	ankle_angle_l	subtalar_angle_l	mtp_angle_l	lumbar_extension	lumbar_bending	lumbar_rotation	arm_flex_r	arm_add_r	arm_rot_r	elbow_flex_r	pro_sup_r	wrist_flex_r	wrist_dev_r	arm_flex_l	arm_add_l	arm_rot_l	elbow_flex_l	pro_sup_l	wrist_flex_l	wrist_dev_l
      0.98500000	      1.96303616	      4.25798573	     -1.79519638	      0.63819391	      0.94114332	      0.20786470	     19.07579456	    -15.58126584	    -13.36994417	     66.39564108	      1.15882255	     -7.35616933	    -18.37571319	      0.00000000	      1.20053500	      4.34576308	    -19.56553228	     10.30077716	      0.17978248	      3.58651222	      6.46978827	      0.00000000	     -1.95728739	     -5.08969543	     -1.29802392	     44.50367519	    -15.85372751	     44.50367519	     74.94820838	     45.01115318	      0.00000000	      0.00000000	     44.50367519	    -15.85372751	     44.50367519	     74.94820838	     45.01115318	      0.00000000	      0.00000000
      0.99000000	      2.22559656	      3.59583999	     -1.44895159	      0.64443177	      0.94245841	      0.20684039	     19.01298923	    -14.64526169	    -13.79200849	     65.13307049	      1.13678653	     -6.33246050	    -17.42208905	      0.00000000	      0.18818595	      3.72618514	    -19.40496440	      9.75218357	      0.17020771	      3.89055039	      7.53749275	      0.00000000	     -2.33887628	     -4.28601835	     -1.87069334	     44.50537278	    -15.84890523	     44.50537278	     74.94878205	     45.01081466	      0.00000000	      0.00000000	     44.50537278	    -15.84890523	     44.50537278	     74.94878205	     45.01081466	      0.00000000	      0.00000000
      0.99500000	      2.18340882	      3.41474374	     -1.21388026	      0.65057779	      0.94261894	      0.20620348	     19.62795243	    -14.26595262	    -13.95611188	     64.30409679	      1.12231821	     -5.80919561	    -17.19076446	      0.00000000	     -0.35958907	      3.60349387	    -19.31737451	      9.43235059	      0.16462557	      4.22739824	      7.99129601	      0.00000000	     -2.35244060	     -4.01937084	     -2.07893975	     44.50618172	    -15.84661106	     44.50618172	     74.94905388	     45.01065654	      0.00000000	      0.00000000	     44.50618172	    -15.84661106	     44.50618172	     74.94905388	     45.01065654	      0.00000000	      0.00000000
      1.00000000	      2.08923398	      3.39591815	     -0.98598671	      0.65670883	      0.94254785	      0.20562147	     20.32918961	    -14.09857666	    -14.09799456	     63.47020317	      1.10776402	     -5.50796773	    -17.03507791	      0.00000000	     -0.76273500	      3.63262563	    -19.33289588	      9.28667407	      0.16208304	      4.38945963	      8.19216723	      0.00000000	     -2.29558420	     -3.94147782	     -2.13359883	     44.50645911	    -15.84582497	     44.50645911	     74.94914686	     45.01060280	      0.00000000	      0.00000000	     44.50645911	    -15.84582497	     44.50645911	     74.94914686	     45.01060280	      0.00000000	      0.00000000
      1.00500000	      1.99944830	      3.39786426	     -0.78447970	      0.66282796	      0.94240055	      0.20512857	     21.01611767	    -13.94781594	    -14.22767582	     62.55960958	      1.09187117	     -5.18037269	    -16.86391501	      0.00000000	     -1.17454949	      3.68044271	    -19.33813210	      9.12382174	      0.15924073	      4.59045756	      8.39888110	      0.00000000	     -2.18418578	     -3.85602515	     -2.18523431	     44.50664809	    -15.84528965	     44.50664809	     74.94921013	     45.01056633	      0.00000000	      0.00000000	     44.50664809	    -15.84528965	     44.50664809	     74.94921013	     45.01056633	      0.00000000	      0.00000000
      1.01000000	      2.27081339	      2.82768347	     -0.51231338	      0.66892791	      0.94332078	      0.20445010	     20.94885212	    -13.07364405	    -14.49834694	     61.14809181	      1.06723553	     -4.24727709	    -15.94816991	      0.00000000	     -2.17001002	      3.13591585	    -19.04211685	      8.57783455	      0.14971146	      4.93980772	      9.23715238	      0.00000000	     -2.68698518	     -3.14964374	     -2.58810773	     44.50774754	    -15.84217753	     44.50774754	     74.94957718	     45.01035639	      0.00000000	      0.00000000	     44.50774754	    -15.84217753	     44.50774754	     74.94957718	     45.01035639	      0.00000000	      0.00000000
      1.01500000	      2.11669812	      2.92063193	     -0.26834057	      0.67500438	      0.94284273	      0.20387405	     21.68587022	    -13.05309685	    -14.62124352	     60.17474340	      1.05024740	     -4.08593441	    -15.87478760	      0.00000000	     -2.44179261	      3.26212688	    -19.05456581	      8.52835908	      0.14884795	      5.08381241	      9.30613958	      0.00000000	     -2.54856029	     -3.17345882	     -2.57466974	     44.50789684	    -15.84175531	     44.50789684	     74.94962687	     45.01032818	      0.00000000	      0.00000000	     44.50789684	    -15.84175531	     44.50789684	     74.94962687	     45.01032818	      0.00000000	      0.00000000
      1.02000000	      2.08928749	      2.85329502	     -0.01378704	      0.68105978	      0.94270859	      0.20332753	     22.11708947	    -12.75730213	    -14.66209413	     58.90939422	      1.02816289	     -3.68617416	    -15.54620027	      0.00000000	     -2.93141703	      3.23204892	    -18.82322435	      8.34436818	      0.14563670	      5.46024590	      9.60455051	      0.00000000	     -2.59773241	     -3.05685404	     -2.63999719	     44.50827788	    -15.84067801	     44.50827788	     74.94975357	     45.01025644	      0.00000000	      0.00000000	     44.50827788	    -15.84067801	     44.50827788	     74.94975357	     45.01025644	      0.00000000	      0.00000000
      1.02500000	      2.37195061	      2.31979375	      0.28672417	      0.68710719	      0.94344132	      0.20261164	     21.95497182	    -11.97070251	    -15.01999265	     57.26613586	      0.99948262	     -3.15664154	    -14.86464872	      0.00000000	     -3.83983510	      2.69339280	    -18.52545550	      7.97827684	      0.13924720	      5.68327581	     10.05191799	      0.00000000	     -3.10393345	     -2.31330047	     -3.05209125	     44.50955129	    -15.83708143	     44.50955129	     74.95017549	     45.01001976	      0.00000000	      0.00000000	     44.50955129	    -15.83708143	     44.50955129	     74.95017549	     45.01001976	      0.00000000	      0.00000000
      1.03000000	      2.41487208	      2.14826554	      0.57976962	      0.69311349	      0.94337487	      0.20195953	     22.20167640	    -11.60918390	    -15.21840669	     55.79633666	      0.97382979	     -2.98988072	    -14.65684202	      0.00000000	     -4.38014555	      2.53775597	    -18.25699686	      7.80988974	      0.13630829	      5.94678808	     10.17811598	      0.00000000	     -3.26100659	     -2.03538599	     -3.25180328	     44.51093808	    -15.83317129	     44.51093808	     74.95063231	     45.00976734	      0.00000000	      0.00000000	     44.51093808	    -15.83317129	     44.51093808	     74.95063231	     45.00976734	      0.00000000	      0.00000000
      1.03500000	      2.41953123	      2.08293466	      0.81602660	      0.69913082	      0.94309956	      0.20152600	     22.52019159	    -11.33830481	    -15.29603574	     54.35159486	      0.94861428	     -2.77479264	    -14.39853112	      0.00000000	     -4.87784629	      2.48765738	    -18.01594560	      7.66155302	      0.13371933	      6.20574668	     10.31058025	      0.00000000	     -3.35219085	     -1.89656227	     -3.35193660	     44.51215731	    -15.82973991	     44.51215731	     74.95103139	     45.00955038	      0.00000000	      0.00000000	     44.51215731	    -15.82973991	     44.51215731	     74.95103139	     45.00955038	      0.00000000	      0.00000000
